/* XPM */
static char *_3af566706154528a81ba7e6a87aa7a7L4azduymVELnMfHw[] = {
/* columns rows colors chars-per-pixel */
"32 32 9 1 ",
"  c #729F00",
". c #7BA800",
"X c #85B600",
"o c #8DC300",
"O c #699200",
"+ c #5A7B01",
"@ c #A1D700",
"# c #80B100",
"$ c white",
/* pixels */
" .Xo.X.X XOO  O.O o .O+oOOo@#.oX",
"O.X. o .X.o+OOO@O.oX.Ooo.OoX.XX.",
"O . OoO.. oO+oO@#.oX .Xo.X.X X. ",
"O+@ .oX. oo.Oo.X. X.O.X. o .X.o ",
"+o@#.oX .Xo.X. .  . O . OoO.. oO",
"OoX.XX.O.X. X    O  +O@ .oX. oo.",
"X.X X. O . O.OO  OoO+O@o.oX .Xo.",
"Xo.X. oOO  O O+O+OoO..Xo XoO.X. ",
".o . OoO+oO+OOO@O.oX. oo..oX X O",
".oX.Ooo.OoXOXOO@#.oX .Xo.X.XOX@O",
".oX .Xo.X.XOXO.X. X.O.X. X .X.@#",
" X.O.X. X .X.  .  . O o O.Oo..X.",
" . O . O.o . O@  O  +O@ . Oo  o ",
"OX +O  O @O.OO@ OoO@O.@X.Ooo. oX",
"OXOO O@+.@X. oo.+@X@X.oX .Xo.X.X",
"Xo . O@#.oX .Xo.O@.Xo X.O.X. X .",
".oO.O.o.OX.O.X. oo..oX.XO . O.O ",
".oX.Ooo. o OXO .Xo.X.X X+O  O @O",
".oX .Xo.X.X XOO.X. X .o. +Oo+O@#",
" X.O.X. X .X. O . O.O o .OO@O.o.",
" X O . O.O . OOO +O@O.oX.Oo@. oX",
"OX +o  O oO O+O.OO#@#ooX .Xo.X.X",
"X. OoO.+O@OOoOX.Oo#..oX.X.X. X .",
".@O.oX.Oo@.OoXX .o#.X.X X . O.O ",
" @#.oX .Xo.X.X.O.X. X .o.   o OO",
".X. X.O.X. X . O . O.O o .OOoO+o",
"X.X . O o O.Oo OO  O@O.oX.Ooo.Oo",
"X XO  +O@ . O@O+OOXO@#.oX .Xo.X.",
".X. O@O.@X.Oo@OOoOX.X. X.O.X. X ",
" . o @#.oX .Xo.OoX.X.  . O . OoO",
". Oo.Xo X.O.X..X.XOX  O  OO  OoO",
".Ooo..oX.XO .  X .o. OOoO+O@O.oX"
};
