/* XPM */
static char *char_down11630865933[] = {
/* columns rows colors chars-per-pixel */
"32 32 30 1 ",
"  c None",
". c #2E1E22",
"X c #323234",
"o c #5C2E00",
"O c #745C1F",
"+ c #534721",
"@ c #545456",
"# c #705654",
"$ c #7A6843",
"% c #767678",
"& c #964F00",
"* c #8F7772",
"= c #A88E35",
"- c #C4B85C",
"; c #CA9E73",
": c #354CA1",
"> c #3560BD",
", c #3576DC",
"< c #928A8C",
"1 c #979799",
"2 c #B7A099",
"3 c #B7B7BB",
"4 c #DDBD9C",
"5 c #D5D196",
"6 c #EEDAB3",
"7 c gray85",
"8 c #D9D9DD",
"9 c #FDF0C5",
"0 c gray95",
"q c white",
/* pixels */
"                                ",
"          O  OO====OOO          ",
"         O-OO-------==OOOOO     ",
"        O-O=-55----------==O    ",
"        O5O-55----========O     ",
"      OO=-O----==-----==OOOO    ",
"     O=--===--=--55-------==O   ",
"    O=--=-=-O=--5-------===O    ",
"    O-O=-=-5-O=----======OOO    ",
"   O=O=-O=5--O6=--5---======O   ",
"    OO--O-5-=666==-55-----=O    ",
"     O-=O--=666666==----=OO     ",
"    O-==O-=669999999===OO=O     ",
"    O=O4=O6+++99999+++6==4$     ",
"     O$4-467.8999998.764-4$     ",
"      O$-;60.<99999<.06;-$O     ",
"       O$;6qoo99999ooq6;$O      ",
"        XX46&&99999&&64XX       ",
"       X@@$46999999964$@@X      ",
"      X@381$;4666664;$331@X     ",
"      X%133%$$$$$$$$$%883%X     ",
"      X@%%%X138888831X11%X      ",
"     +#%1@X%113111311%X@@%X     ",
"     +##XXX%11%@@@%11%X131X     ",
"      ++  X#@@@%1%@@@#X381X     ",
"          X@###%%%###@+22*+     ",
"         X@%1:>181>:1%+**#+     ",
"         X@1%,:%1%:>%1@+++      ",
"          X@,,>XXX331@X         ",
"           @883X X111X          ",
"           X31%@  XXX           ",
"           X331@                "
};
